<?xml version="1.0" encoding="utf-8"?>
<!-- Generator: Adobe Illustrator 26.5.0, SVG Export Plug-In . SVG Version: 6.00 Build 0)  -->
<svg version="1.1" id="_レイヤー_3" xmlns="http://www.w3.org/2000/svg" xmlns:xlink="http://www.w3.org/1999/xlink" x="0px"
	 y="0px" viewBox="0 0 331.9 383.3" style="enable-background:new 0 0 331.9 383.3;" xml:space="preserve">
<style type="text/css">
	.st0{fill:none;stroke:#231815;stroke-width:29;stroke-miterlimit:10;}
	.st1{fill:none;stroke:#231815;stroke-miterlimit:10;}
</style>
<polygon class="st0" points="166,16.7 113.6,46.9 97.3,71.5 65.6,74.7 14.5,104.2 14.5,151.9 26.1,191.6 14.5,220.7 14.5,279.1 
	64.6,308 100.3,313.1 119,339.4 166,366.5 216.3,337.4 239,313.1 270.4,306.2 317.4,279.1 317.4,228.6 299.5,194 317.4,164.2 
	317.4,104.2 264.2,73.4 239,71.9 222,49.1 "/>
<path class="st1" d="M73,269.5c19.3,15.1,30.6-24.1,30.6-24.1S52.3,253.3,73,269.5z"/>
<path class="st1" d="M247.4,110c-21.8-11.3-25.7,29.2-25.7,29.2S270.7,122.1,247.4,110z"/>
<polygon class="st1" points="206.9,160 200,161.3 200.1,154.4 207.1,146.2 213.9,144.9 213.8,151.8 "/>
<polygon class="st1" points="117,242.1 110,241.9 111.6,235.2 120,228.6 127,228.7 125.4,235.5 "/>
<path class="st1" d="M66.3,97.6h81.8l7.1-6.3c2.6,1.1,5.3,2.2,8.1,3.3c4.4,1.8,6.5,3.1,6.5,3.9s-0.9,1.2-2.8,1.4s-3.7,0.3-5.7,0.3
	h-42.7v13.6h52.9l3.4-4c3.3,1.6,5.8,2.8,7.4,3.7c4.9,2.6,13.8,4.3,13.8,5c0,0.9-7.6,1.6-10,1.9c-2.4,0.3-4.5,0.6-6.4,0.9
	c-0.8,0.7-3,2-6.6,3.9s-5.9,2.9-6.8,2.9l-0.7-0.5l0.5-1c0.2-0.2,1.3-2,3.3-5.3c0.6-1,1.5-2.6,2.8-4.7h-53.6
	c-0.1,2.7,0.4,12.6,0.7,18.1c0.4,7.7,0.6,12.6,0.6,16.4c0,2-0.8,3.5-2.3,4.3c-1.6,0.9-3.8,1.3-6.6,1.3c-0.7,0-1.3-0.1-1.9-0.2
	c-0.1,0-0.3-0.1-0.7-0.2c0-5.4,0.1-10.4,0.3-14.8c0.7-15.4,1.1-23.7,1.1-24.9H53.8c0,2.7-0.8,5.2-2.2,7.4c-1.8,2.8-4.4,4.3-7.7,4.3
	c-1.4,0-2.5-0.3-3.4-0.9c-0.9-0.6-1.4-1.4-1.4-2.5c0-1.2,1.6-3.5,4.9-6.9c3.3-3.4,4.9-6.8,4.9-9.9c0-1.3,0.3-1.9,1-1.9
	c1.1,0,2.1,1,2.8,3c0.7,2,1.1,3.5,1.1,4.7h55.9v-13.6H67c-1.2,0.3-2.2,0.6-3.3,0.9c-0.9,0-2-0.5-3.3-1.5c-1.3-1-1.9-1.8-1.9-2.5
	L66.3,97.6L66.3,97.6z M102.7,131.7c0,0.4-0.7,0.7-2,0.9s-2.5,0.3-3.7,0.3H77c-2.7,0-4.7,0.1-5.7,0.3c-1.1,0.2-2.1,0.4-3.2,0.6
	c-0.7,0-1.7-0.6-3.1-1.7s-2.9-11.1-2.9-11.7c0.7,0,2.3,0.2,4.8,0.4s4.2,0.4,5,0.4h16.9l4.1-3.7c2.1,1,4.2,2,6.3,2.9
	C101,121.5,102.7,131.3,102.7,131.7L102.7,131.7z M105,145.6c0,0.6-0.6,1-1.9,1.1s-2.4,0.2-3.4,0.2H79.1c-2.8,0-4.8,0.1-5.9,0.2
	l-3.1,0.5c-0.9,0-2-0.5-3.3-1.6c-1.3-1.1-2.2-8.1-2.2-8.6c1.7,0.2,3.3,0.4,4.7,0.4c1.4,0,2.6,0.1,3.3,0.1H92l4.1-3.5
	c1.6,0.8,3.2,1.5,4.8,2.1C103.5,137.8,105,145,105,145.6L105,145.6z M162.5,129.4c0,0.5-0.7,0.8-2.1,1s-2.6,0.2-3.6,0.2h-21.2
	c-2.9,0-4.9,0.1-6.1,0.3c-1.1,0.2-2.2,0.4-3.2,0.6c-0.8,0-1.9-0.5-3.3-1.6c-1.4-1.1-2.1-1.9-2.1-2.5c0.8,0,1.4-7.4,2.3-7.3
	c4.5,0.4,6.9,0.6,7.3,0.6h18.5l4-3.7c2.1,0.9,3.8,1.7,5.2,2.3C160.9,120.5,162.5,128.8,162.5,129.4L162.5,129.4z M164.9,144.7
	c0,0.6-0.9,1-2.8,1.2c-1.8,0.2-4.5,0.3-7.9,0.3l-10.1-0.2c-3,0-5.8,0-8.4,0.1c-2.6,0-4.5,0.1-5.7,0.3l-2.9,0.5c-0.9,0-1.6-7.5-3-8.5
	c-1.4-1-2.1-1.8-2.1-2.5c0.5,0,2.1,0.1,5,0.3c2.9,0.2,4.5,0.3,4.8,0.3l20.3-0.1l4.1-3.5c2.1,0.9,3.8,1.7,5.2,2.3
	C164,136.2,164.9,144.1,164.9,144.7L164.9,144.7z"/>
<path class="st1" d="M101.6,159.7c2.5,1.2,5.4,3,5.4,3.6s-1.7,1.3-2.9,1.5"/>
<path class="st1" d="M84,164.6c-2.8,0-7.7,0.2-8.8,0.3l-3.1,0.5c-0.9,0-2-0.5-3.3-1.6c-1.3-1.1-2-1.8-2-2.3c1.7,0.2,3.3,0.4,4.7,0.4
	c1.4,0,11.2,0,12,0l0.1-2.8c-2.8,0-7.3,0.4-8.4,0.6l-3.1,0.5c-0.9,0-2-0.5-3.3-1.6c-1.3-1.1-2-1.8-2-2.3c1.7,0.2,15.3,0,16.7,0.1"/>
<polyline class="st1" points="97.8,164.6 88.1,164.8 88.1,166.4 88.5,166.4 94.4,166.5 98,164.6 "/>
<path class="st1" d="M84.2,169.2c-2.8,0-7.1,0.1-8.3,0.2l-3.1,0.5c-0.9,0-2-0.5-3.3-1.6c-1.3-1.1-2-1.8-2-2.3
	c1.7,0.2,14.9,0.2,16.3,0.3"/>
<path class="st1" d="M103.8,164.7c4.3,2.1,4,2.6,3.9,3.1c-0.1,0.6-0.6,1-1.9,1.1s-2.4,0.2-3.4,0.2l-14.7-0.2"/>
<polyline class="st1" points="100.1,159.2 97.4,161.9 88.1,162 88.1,159.5 99.7,159.4 "/>
<path class="st1" d="M83,156.8l0.1-2.9c0-0.6,0.5-1.4,1.5-2.4s1.8-1.4,2.5-1.4c0,0.3,1.2,4.2,1,6.2h6.8l3.5-3.1
	c1.6,0.8,3.2,1.5,4.8,2.1c2.5,1.2,3.8,2.1,3.8,2.6s-3.9,1.5-5.1,1.7"/>
<path class="st1" d="M88.1,168.6c-0.1,1.5,0.1,4-0.4,4.9c-1.2,1.8-1.9,1-2.5,1s-1-0.6-1.2-1.9s-0.3-1.3-0.3-3.7"/>
<path class="st1" d="M83.6,166.9l-0.1-2.2L83.6,166.9z"/>
<path class="st1" d="M83.4,162.4L83.4,162.4z"/>
<path class="st1" d="M88.1,162.5L88.1,162.5z"/>
<path class="st1" d="M142.3,166.3L142.3,166.3z"/>
<path class="st1" d="M137.5,162.3L137.5,162.3z"/>
<path class="st1" d="M142.2,162.4L142.2,162.4z"/>
<path class="st1" d="M263.5,194.6l6.6-6.2c0.8,0,3.1,1,7,3c3.9,2,5.8,3.4,5.8,4.1c0,0.8-0.8,1.3-2.3,1.6c0,0-8.7,1.1-15.8,1.1h-28.5
	 M163.8,214.6c0,0,0,2.1-0.1,3.2c-0.1,1.6-0.3,2.7-2,3.3c-1.7,0.6-3.6,0.9-5.7,0.9c-1.2,0-2-0.1-2.5-0.1c-0.1,0-0.1-0.2-0.2-0.4
	l-0.4-6.8l-41.3-0.1c-10,0-19.7,0-29,0.1s-14.6,0.2-15.8,0.4l-3,0.6c-0.9,0-1.9-0.5-3.1-1.6c-1.2-1-1.8-2-1.8-2.8l9.5,0.6h84.8
	l0.1-14.1H77.9c-16.7,0-25.6,0.1-26.6,0.3c-1.3,0.5-2.3,0.7-3.1,0.7c-0.9,0-1.9-0.5-3.1-1.6c-1.2-1.1-1.8-2-1.8-2.9l9.7,0.6h100.4
	v-15.8h-25.9c-10.2,0-22.1,0-35.8,0.1c-13.7,0.1-21,0.2-22,0.4c-1,0.2-2,0.4-2.9,0.6c-0.9,0-1.9-0.5-3.2-1.6s-1.9-2-1.9-2.7l9.8,0.6
	l80.4-0.1l4.9-5.2c1.3,0,3.8,1.1,7.5,3.4c2.1,1.3,3.1,2.3,3.1,2.9c0,0.6-0.4,1.2-1.3,1.8c-2,1.5-3,2.4-3,2.8v12.9"/>
<path class="st1" d="M240.1,221c-0.7,0.8-4.9,4.1-9.3,8.6c9.6,1.8,20.9,5.9,23.9,9c1,1.1,10.9,0.6,10.9,1.7c0,2.2-11.2,5.5-13.5,5.5
	c-1.5,0-2.6-1-3.4-2.8c-2.1-3.9-12.2-9.4-19.4-11.9c-6.1,5.4,0.5,14.3-6.4,18.4l-7.9-6.1c0.1-0.4,22.6-28.7,24.9-28.4h-26.1v51.1h41
	l5.9-6.2l10,7.7c0.5,0.3,0.6,0.5,0.6,0.8c0,0.4-0.6,0.7-1.8,0.7h-55.7l0,9.7h45.1l7.3-5l8.2,5c1,1.1,1.5,1.8,1.5,2.2
	c0,0.5-0.6,0.8-2.1,0.8h-59.9c0,5.4,0.1,15.7,0.6,21.5v0.7c0,1.7-0.6,2.4-4.1,4c-1.5,0.7-2.4,1.1-3.3,1.1c-1,0-1.3-0.7-1.3-2.5
	c0-0.5,0.2-1.4,0.2-2.2c0.3-3,0.5-11.7,0.5-22.6h-51c-3.4,0-8.2,0.5-10.9,1.5l-4.6-5.1c4.1,0.4,8.2,0.5,11.9,0.5h54.6l0-9.7h-34
	c-3.4,0-8.2,0.5-10.9,1.5l-4.6-5.1c4.1,0.4,8.5,0.5,12.2,0.5h37.2v-51.1l-43-0.2 M236.4,197.9c0,1,0,6.3,0,7.4
	c0,2.2-5.4,3.7-6.2,3.7c-1,0-1.1-0.8-1.1-2.8v-8h-38.6c0,3,0,6.5,0.2,7.9v0.4c0,1.8-4.1,3.3-5.7,3.3c-1.1,0-1.8-0.8-1.8-2.6
	c0-0.3,0.2-7.6,0.2-9h-20.2l0.5,13.8h94.1l6.9-7.6l10.5,8.8c0.3,0.3,0.6,0.7,0.6,1c0,0.6-0.5,0.8-1.1,0.8h-28.9l-6,6.4 M263.5,194.6
	h-27.1l-0.2-6.1l3.4-1.7c1.3-0.6,2-1,2-1.4s-0.6-0.8-2.1-1.4l-10.9-4.6c0.5,6.2,0.5,9,0.5,15.1h-38.5v-7.7c4.4-2.2,5.1-2.4,5.1-3
	c0-0.4-0.5-0.7-1.3-1l-11.3-4.1c0.3,2.6,0.3,4.4,0.3,11.9v4.2l-20.2-0.2 M161.7,195 M202.9,245.4c-2.1-3.9-11.8-14.1-18.8-16.6
	c-4.9,4.3-15.5,12-20.8,15.1l-1.6-1.2c11.1-8.1,19.8-18.9,23.2-26.5l9.3,3.3c0.3,0.3,7.5,1.5,7.5,1.7c0,0.7-7.8,0.5-9.6,0.9
	c-1,0.1-2.3,0.8-6.4,5.2c11.6,2.6,18.1,3.6,18.1,9.4L202.9,245.4L202.9,245.4z M193.9,241.9c0.6,0.3,0.8,0.7,0.8,1.1s-0.5,1-1.3,1.2
	c-1.5,0.4-3.8,2.2-6.7,5c17.8,4.6,18,4,18,5.6c0,1.9,0.9,8.5-0.7,8.5c-1.5,0-18.8,1.4-19.6-0.5c-1.8-4.6,7.6-8.5,0.6-11.8
	c-4.1,4.1-10.3,8-21.4,13.7l-1.6-1.1c12.2-7.7,19.1-14.5,24.4-25.6L193.9,241.9L193.9,241.9z"/>
<path class="st1" d="M245.2,242.5c0,0.6-5.5,0.4-6.8,0.8c-0.7,0.1-1.6,0.8-4.5,4.8c8.1,2.4,12.7,3.2,12.7,8.5l-0.7,8
	c-1.5-3.5-8.2-12.9-13.2-15.1c-3.4,3.9-10.9,11-14.6,13.8l-1.1-1.1c7.8-7.4,13.9-17.3,16.3-24.2l6.5,3
	C240.2,241.2,245.2,242.3,245.2,242.5"/>
<path class="st1" d="M156,159.3c2.5,1.2,5.4,3,5.4,3.6s-1.6,1.3-2.9,1.5"/>
<path class="st1" d="M138.3,164.2c-2.8,0-7.7,0.2-8.8,0.3l-3.1,0.5c-0.9,0-2-0.5-3.3-1.6c-1.3-1.1-2-1.8-2-2.3
	c1.7,0.2,3.3,0.4,4.7,0.4c1.4,0,11.2,0,12,0l0.1-2.8c-2.8,0-7.3,0.4-8.4,0.6l-3.1,0.5c-0.9,0-2-0.5-3.3-1.6c-1.3-1.1-2-1.8-2-2.3
	c1.7,0.2,15.3,0,16.7,0.1"/>
<polyline class="st1" points="152.1,164.2 142.4,164.4 142.4,166 142.8,166 148.8,166.1 152.3,164.2 "/>
<path class="st1" d="M138.5,168.8c-2.8,0-7.1,0.1-8.3,0.2l-3.1,0.5c-0.9,0-2-0.5-3.3-1.6c-1.3-1.1-2-1.8-2-2.3
	c1.7,0.2,14.9,0.2,16.3,0.3"/>
<path class="st1" d="M158.1,164.3c4.3,2.1,4,2.6,3.9,3.1c-0.1,0.6-0.6,1-1.9,1.1s-2.4,0.2-3.4,0.2l-14.7-0.2"/>
<polyline class="st1" points="154.4,158.8 151.7,161.5 142.4,161.6 142.4,159.1 154,159 "/>
<path class="st1" d="M137.3,156.4l0.1-2.9c0-0.6,0.5-1.4,1.5-2.4s1.8-1.4,2.5-1.4c0,0.3,1.2,4.2,1,6.2h6.8l3.5-3.1
	c1.6,0.8,3.2,1.5,4.8,2.1c2.5,1.2,3.8,2.1,3.8,2.6s-3.9,1.5-5.1,1.7"/>
<path class="st1" d="M142.4,168.2c-0.1,1.5,0.1,4-0.4,4.9c-1.2,1.8-1.9,1-2.5,1c-0.6,0-1-0.6-1.2-1.9c-0.2-1.3-0.3-1.3-0.3-3.7"/>
<path class="st1" d="M138,166.4l-0.1-2.2L138,166.4z"/>
</svg>
